<svg xmlns="http://www.w3.org/2000/svg" width="300" height="300" preserveAspectRatio="xMidYMid meet" version="1.0" viewBox="0 0 225 225"><metadata>Created by potrace 1.14, written by Peter Selinger 2001-2017</metadata><g fill="#000" stroke="none"><path d="M1073 2109 c-27 -46 -93 -161 -146 -254 l-98 -171 -65 -17 c-77 -20 -144 -63 -185 -120 -65 -89 -62 -58 -64 -669 -2 -586 -2 -585 -48 -652 -21 -30 -102 -86 -124 -86 -10 0 -13 71 -13 363 0 421 1 430 82 509 45 44 48 50 48 98 l0 50 -40 -20 c-52 -26 -107 -75 -135 -121 -51 -81 -54 -108 -55 -564 l0 -425 71 5 c149 9 278 120 305 260 4 22 8 280 9 575 1 587 0 573 62 635 36 37 99 72 110 62 4 -5 7 -35 7 -68 -1 -32 2 -59 5 -59 3 0 52 80 108 178 185 324 205 357 213 365 4 5 28 -27 53 -70 24 -43 89 -155 143 -248 55 -94 105 -182 113 -198 21 -41 29 -33 26 28 -1 30 2 60 6 66 19 31 127 -52 157 -120 14 -31 16 -107 17 -583 2 -626 0 -615 86 -711 63 -70 137 -107 229 -111 l69 -4 -1 434 c0 412 -1 437 -21 490 -25 69 -89 141 -156 177 l-51 28 0 -51 c0 -48 3 -54 48 -98 79 -77 80 -83 80 -505 0 -283 -2 -367 -12 -367 -22 0 -103 57 -125 89 -12 17 -27 46 -33 64 -6 20 -11 237 -12 582 -2 546 -2 550 -24 599 -30 67 -64 110 -115 144 -45 31 -134 65 -147 57 -15 -10 -39 25 -169 252 -71 126 -136 237 -144 247 -13 18 -18 14 -64 -65z" transform="translate(0.000000,225.000000) scale(0.100000,-0.100000)"/><path d="M1057 1498 c-35 -62 -103 -180 -151 -262 -47 -83 -86 -154 -86 -158 0 -4 138 -8 306 -8 287 0 306 1 300 18 -8 19 -285 502 -297 515 -4 5 -36 -42 -72 -105z m126 -185 c30 -54 59 -107 65 -119 11 -20 9 -20 -119 -20 -71 1 -129 5 -130 9 0 8 121 227 126 227 2 0 28 -44 58 -97z" transform="translate(0.000000,225.000000) scale(0.100000,-0.100000)"/><path d="M823 892 c-13 -2 -23 -4 -23 -5 -1 -1 -3 -20 -6 -42 -8 -57 -50 -129 -93 -159 -33 -24 -36 -30 -36 -76 -1 -28 2 -50 6 -50 21 0 80 34 116 67 40 37 93 122 93 149 0 10 18 14 68 15 78 0 391 0 410 0 6 -1 12 -8 12 -18 0 -26 50 -104 93 -146 34 -33 94 -67 117 -67 3 0 6 23 6 50 -1 46 -4 52 -38 76 -40 29 -84 107 -93 167 -5 29 -10 37 -28 38 -76 3 -586 3 -604 1z" transform="translate(0.000000,225.000000) scale(0.100000,-0.100000)"/></g></svg>